<svg xmlns="http://www.w3.org/2000/svg" viewBox="0 0 294.1 357.81"><defs><style>.cls-1,.cls-12{fill:#f39f7d;}.cls-2{fill:#ffc542;}.cls-3{fill:#fff;}.cls-4{fill:#fda295;}.cls-5{fill:#4c180c;}.cls-6{fill:#fffeff;}.cls-7{fill:#e15235;}.cls-10,.cls-11,.cls-8{fill:none;}.cls-12,.cls-8{stroke:#661b04;}.cls-10,.cls-11,.cls-12,.cls-8{stroke-linecap:round;stroke-linejoin:round;stroke-width:5px;}.cls-9{fill:#e8705b;}.cls-10{stroke:#e52a0c;}.cls-11{stroke:#e15235;}</style></defs><title>锦鲤附体</title><g id="图层_2" data-name="图层 2"><g id="图层_5" data-name="图层 5"><path class="cls-1" d="M279.94,111a4,4,0,0,1,3.14,4.32C281.89,123.8,261.63,132,252,126.43a101.45,101.45,0,0,1-2.52-10.94A74.32,74.32,0,0,0,243.78,97h0C244.38,97.54,252.61,104.67,279.94,111Z"/><path class="cls-2" d="M265.59,40.17c.8,4.49.85,12.79-.62,21.76-.63-.16-14.44-3.46-19.88-15.21,3.56-2.86,7.49-6.2,11.87-10.06C259.79,34.16,264.72,35.36,265.59,40.17Z"/><path class="cls-3" d="M117.77,169.33a36.92,36.92,0,0,0,1,5.93,21.08,21.08,0,0,0,18.58,15.61c7.92.62,14.94-3.48,19.74-14.33.36-.93.71-1.83,1-2.69,3.87-11,3-16.79,3-16.79S145,160.61,143,150.17c0,0-9.36,9.11-22.21-2.3C119.82,148.74,116.83,158.94,117.77,169.33Zm142.64-14c3.27,15.13,2.51,25.36-2,37.18s-11.78,23.25-23.91,31.8a66.61,66.61,0,0,1-9.28,5.45v0c-13.35,6.48-31.25,10.06-55.4,8.76A260.14,260.14,0,0,1,129.86,233c-22.1-3.06-39.81-7.67-54-13.39-42.1-17-52.71-43.75-53.18-68.32-.24-12.69,2.53-22.59,10.78-35.72C75.43,101,94.82,112.34,121,122.81c19.08,7.63,26.12,7.63,26.12,7.63s6.63,2.4,27.17,1.69C202.38,131.18,225.91,127.36,260.41,155.32Zm-29.77,16.26c1.43-8.14-6.29-16.29-17.21-18.2s-21,3.12-22.37,11.26,6.28,16.29,17.2,18.2S229.22,179.72,230.64,171.58ZM89.12,153.9c1.43-8.14-6.28-16.29-17.21-18.2S51,138.82,49.53,147s6.28,16.29,17.22,18.2S87.71,162,89.12,153.9Z"/><path class="cls-2" d="M265,61.93A71.56,71.56,0,0,1,259.74,80L259.6,80c-15.69-.63-27.48-21.37-28.35-22.93,3.73-2.5,8.31-5.85,13.84-10.31C250.53,58.47,264.34,61.77,265,61.93Z"/><path class="cls-2" d="M259.6,80l.14.06c-3.46,7.71-8.59,14.18-15.94,17h0v0A65.56,65.56,0,0,0,238,86.79a105.81,105.81,0,0,0-20.78-22.26s4-.7,14.07-7.5C232.12,58.59,243.91,79.33,259.6,80Z"/><path class="cls-1" d="M197.06,110.15l0-.05a13.16,13.16,0,0,0-9.41-6.95,13.42,13.42,0,0,0-15.4,11.06,13.66,13.66,0,0,0,2.95,11.12,10.84,10.84,0,0,0,7,4.39,1.45,1.45,0,0,0,.3,0,3.28,3.28,0,0,0,.45.11,13.42,13.42,0,0,0,15.4-11.08,13.94,13.94,0,0,0-.64-7.2C197.5,111.1,197.29,110.61,197.06,110.15ZM69.3,66s0,0,0,0h0a67,67,0,0,1,8.55-7.23A106,106,0,0,1,104.5,45c31.36-11,59.12-4.8,59.12-4.8s27.89,3.6,53.56,24.29A105.81,105.81,0,0,1,238,86.79,65.56,65.56,0,0,1,243.77,97v0h0a74.32,74.32,0,0,1,5.67,18.47A101.45,101.45,0,0,0,252,126.43c2,7,4.47,13.24,7,22.76.56,2.13,1.05,4.18,1.48,6.13-34.5-28-58-24.14-86.17-23.19-20.54.71-27.17-1.69-27.17-1.69s-7,0-26.12-7.63C94.82,112.34,75.43,101,33.5,115.52c1-1.67,2.19-3.42,3.43-5.21,5.59-8.11,10-13.12,14.31-19.07a101,101,0,0,0,6.07-9.41A74,74,0,0,1,69.3,66Zm93.92-16.26c.16.47,1.58,5.1-3.55,10.09-4.81,5.37-10.68,10.93-7.21,18.88.67,2.53,4.1,5.37,7.38,4.89,3.42-1.07,7.86-4.94,5.71-10.89-1.59-4.66-1.66-5.4-.75-7.59-.46-.09-2.13,1.09-2.25,3.87-.49.13-1.36-1.74.06-5.41S166.4,54.07,163.22,49.76Z"/><path class="cls-2" d="M243.78,97h0Z"/><path class="cls-1" d="M141.47,342.93c0,2.75-.9,7.9-7.86,10.92-2.63,1.14-18,2.24-29,.73-10.14-1.37-18.85-1.88-28.48-16.41-6.3-9.51-6.38-12.86-13-31.36C51,267.06,75.9,219.56,75.9,219.56c14.15,5.72,31.86,10.33,54,13.39a260.14,260.14,0,0,0,39.94,5.58c24.15,1.3,42-2.28,55.4-8.76h0c2.94,5.67,19.93,40.65,8.75,77-6.59,18.5-6.69,21.85-13,31.36-9.62,14.53-18.33,15-28.47,16.41-11,1.51-26.37.41-29-.73-6.94-3-7.82-8.25-7.82-11v0A46.6,46.6,0,0,1,141.47,342.93Z"/><path class="cls-4" d="M213.43,153.38c10.92,1.91,18.64,10.06,17.21,18.2s-11.43,13.18-22.38,11.26-18.63-10.06-17.2-18.2S202.5,151.46,213.43,153.38Z"/><path class="cls-5" d="M185.63,110c5.74,1,9.65,6.23,8.69,11.67s-6.21,8.89-11.84,8a12.8,12.8,0,0,1-7.32-4.42,9.7,9.7,0,0,1-1.69-7.28C174.43,112.62,179.86,109,185.63,110Zm1,8.69a.63.63,0,1,0-1.23-.22.62.62,0,0,0,.5.74A.63.63,0,0,0,186.67,118.73Zm-.85-1.65a.65.65,0,0,0-.51-.74.63.63,0,0,0-.74.52.64.64,0,0,0,.52.75A.67.67,0,0,0,185.82,117.08Zm-2.27,5.7a2.85,2.85,0,1,0-3.31,2.36A2.89,2.89,0,0,0,183.55,122.78Z"/><path class="cls-6" d="M186.16,118a.64.64,0,0,1-.22,1.27.62.62,0,0,1-.5-.74A.64.64,0,0,1,186.16,118Z"/><path d="M185.31,116.34a.65.65,0,0,1,.51.74.67.67,0,0,1-.73.53.64.64,0,0,1-.52-.75A.63.63,0,0,1,185.31,116.34Z"/><path class="cls-6" d="M181.25,119.42a2.9,2.9,0,1,1-3.31,2.36A2.89,2.89,0,0,1,181.25,119.42Z"/><path d="M182.48,129.75a1.45,1.45,0,0,1-.3,0,10.84,10.84,0,0,1-7-4.39A12.8,12.8,0,0,0,182.48,129.75Z"/><path class="cls-7" d="M165.55,72.73c2.15,6-2.29,9.82-5.71,10.89-3.28.48-6.71-2.36-7.38-4.89-3.47-8,2.4-13.51,7.21-18.88,5.13-5,3.71-9.62,3.55-10.09,3.18,4.31.82,10.2-.61,13.84s-.55,5.54-.06,5.41c.12-2.78,1.79-4,2.25-3.87C163.89,67.33,164,68.07,165.55,72.73Z"/><path class="cls-7" d="M161.16,157.06s.82,5.81-3,16.79c-15.81-15.76-38.19-5.56-40.34-4.52-.94-10.39,2-20.59,3-21.46,12.85,11.41,22.21,2.3,22.21,2.3C145,160.61,161.16,157.06,161.16,157.06Z"/><path class="cls-4" d="M158.11,173.85c-.3.86-.65,1.76-1,2.69-4.8,10.85-11.82,15-19.74,14.33a21.08,21.08,0,0,1-18.58-15.61,36.92,36.92,0,0,1-1-5.93C119.92,168.29,142.3,158.09,158.11,173.85Z"/><path class="cls-2" d="M104.17,44.11l.33.93A106,106,0,0,0,77.88,58.75,67,67,0,0,0,69.33,66h0a0,0,0,0,0,0,0h0C63.68,61.14,61,54,60.09,46.19,80,48.85,95,33.69,95,33.69A74.15,74.15,0,0,0,104.17,44.11Z"/><path class="cls-2" d="M84.82,18.64C88.73,25,92.11,29.89,95,33.69c0,0-15,15.16-34.89,12.5a70.52,70.52,0,0,1,.92-20S77.43,27.75,84.82,18.64Z"/><path class="cls-4" d="M71.91,135.7c10.93,1.91,18.64,10.06,17.21,18.2s-11.44,13.18-22.37,11.26S48.11,155.1,49.53,147,61,133.78,71.91,135.7Z"/><path class="cls-2" d="M77,5.15c2.79,5.08,5.39,9.55,7.79,13.49C77.43,27.75,61,26.19,61,26.19c1.6-8.92,4.42-16.72,6.72-20.67C70.18,1.29,75.22,1.82,77,5.15Z"/><path class="cls-2" d="M69.32,66s0,0,0,0h0A0,0,0,0,1,69.32,66Z"/><path class="cls-1" d="M69.29,66h0a74,74,0,0,0-12,15.81,101,101,0,0,1-6.07,9.41c-11,2-27.28-12.61-25.5-21a4,4,0,0,1,4.41-3c27.63,3.32,38.21-.85,39.12-1.23Z"/><path class="cls-8" d="M75.9,219.56S51,267.06,63.16,306.81c6.61,18.5,6.69,21.85,13,31.36,9.63,14.53,18.34,15,28.48,16.41,11,1.51,26.35.41,29-.73,7-3,7.86-8.17,7.86-10.92"/><polyline class="cls-8" points="69.29 66.01 69.3 66.02 69.32 66.04"/><path class="cls-8" d="M104.17,44.11A74.15,74.15,0,0,1,95,33.69c-2.87-3.8-6.25-8.71-10.16-15-2.4-3.94-5-8.41-7.79-13.49-1.81-3.33-6.85-3.86-9.3.37-2.3,4-5.12,11.75-6.72,20.67a70.52,70.52,0,0,0-.92,20C61,54,63.68,61.14,69.27,66"/><path class="cls-8" d="M69.32,66a0,0,0,0,0,0,0h0c-.91.38-11.49,4.55-39.12,1.23a4,4,0,0,0-4.41,3c-1.78,8.39,14.52,23,25.5,21"/><path class="cls-8" d="M61,26.19s16.42,1.56,23.81-7.55"/><path class="cls-8" d="M95,33.69S80,48.85,60.09,46.19"/><path class="cls-8" d="M147.07,130.44s-7,0-26.12-7.63C94.82,112.34,75.43,101,33.5,115.52"/><path class="cls-8" d="M147.07,130.44s6.63,2.4,27.17,1.69c28.14-.95,51.67-4.77,86.17,23.19"/><path class="cls-8" d="M109.3,106.72a10.94,10.94,0,0,1,3.2-5.51,13.66,13.66,0,0,1,12.36-3.07c7.13,1.62,11.76,8.09,10.31,14.45"/><path class="cls-8" d="M128.83,82.65s.12-3.07-3.25-1.64"/><polyline class="cls-8" points="152.16 312.79 148.32 314.94 143.28 317.74"/><polyline class="cls-8" points="144.11 310.94 148.32 314.94 152.16 318.57"/><path class="cls-8" d="M113.71,99.9A5.93,5.93,0,0,1,107.13,97"/><path class="cls-8" d="M225.22,229.78c2.94,5.67,19.93,40.65,8.75,77-6.59,18.5-6.69,21.85-13,31.36-9.62,14.53-18.33,15-28.47,16.41-11,1.51-26.37.41-29-.73-6.94-3-7.82-8.25-7.82-11"/><path class="cls-8" d="M126,337.78a43.88,43.88,0,0,0,15.46,5.15,46.6,46.6,0,0,0,14.23-.1,48.64,48.64,0,0,0,15-5.05"/><path class="cls-8" d="M243.77,97A65.56,65.56,0,0,0,238,86.79a105.81,105.81,0,0,0-20.78-22.26c-25.67-20.69-53.56-24.29-53.56-24.29S135.86,34.08,104.5,45A106,106,0,0,0,77.88,58.75,67,67,0,0,0,69.33,66h0s0,0,0,0a74,74,0,0,0-12,15.81,101,101,0,0,1-6.07,9.41c-4.29,6-8.72,11-14.31,19.07-1.24,1.79-2.39,3.54-3.43,5.21-8.25,13.13-11,23-10.78,35.72.47,24.57,11.08,51.32,53.18,68.32,14.15,5.72,31.86,10.33,54,13.39a260.14,260.14,0,0,0,39.94,5.58"/><path class="cls-8" d="M234.48,224.3c12.13-8.55,19.39-20,23.91-31.8s5.29-22.05,2-37.18c-.43-1.95-.92-4-1.48-6.13-2.49-9.52-5-15.72-7-22.76a101.45,101.45,0,0,1-2.52-10.94A74.32,74.32,0,0,0,243.78,97h0"/><path class="cls-8" d="M169.8,238.53c24.15,1.3,42-2.28,55.4-8.76v0a66.61,66.61,0,0,0,9.28-5.45"/><path class="cls-8" d="M217.18,64.53s4-.7,14.07-7.5c3.73-2.5,8.31-5.85,13.84-10.31,3.56-2.86,7.49-6.2,11.87-10.06,2.83-2.5,7.76-1.3,8.63,3.51.8,4.49.85,12.79-.62,21.76A71.56,71.56,0,0,1,259.74,80c-3.46,7.71-8.59,14.18-15.94,17h0v0"/><path class="cls-8" d="M243.77,97v0h0c.58.52,8.81,7.65,36.14,14a4,4,0,0,1,3.14,4.32C281.89,123.8,261.63,132,252,126.43a0,0,0,0,0,0,0"/><path class="cls-8" d="M265,61.93h0c-.63-.16-14.44-3.46-19.88-15.21,0,0,0,0,0,0"/><path class="cls-8" d="M231.2,56.94l.05.09c.87,1.56,12.66,22.3,28.35,22.93"/><path class="cls-8" d="M182.48,129.75a3.28,3.28,0,0,0,.45.11,13.42,13.42,0,0,0,15.4-11.08,13.94,13.94,0,0,0-.64-7.2c-.19-.48-.4-1-.63-1.43"/><path class="cls-8" d="M197,110.1a13.16,13.16,0,0,0-9.41-6.95,13.42,13.42,0,0,0-15.4,11.06,13.66,13.66,0,0,0,2.95,11.12"/><path class="cls-8" d="M194.22,95.08s.92-2.92,3.61-.44"/><path class="cls-8" d="M197,110.1l0,.05a5.88,5.88,0,0,0,6.73,2.39"/><path class="cls-8" d="M157,140.14s1.47.3,1.8,1.39"/><path class="cls-8" d="M134.93,136.52a3.23,3.23,0,0,1,2.55-.44"/><path class="cls-8" d="M158.11,173.85c3.87-11,3-16.79,3-16.79S145,160.61,143,150.17c0,0-9.36,9.11-22.21-2.3-1,.87-4,11.07-3,21.46a36.92,36.92,0,0,0,1,5.93,21.08,21.08,0,0,0,18.58,15.61c7.92.62,14.94-3.48,19.74-14.33C157.46,175.61,157.81,174.71,158.11,173.85Z"/><path class="cls-8" d="M172.22,114.21a13.26,13.26,0,1,0,26.12,4.57,13.73,13.73,0,0,0-.66-7.2,13.19,13.19,0,0,0-10.06-8.44A13.41,13.41,0,0,0,172.22,114.21Z"/><path class="cls-7" d="M277.33,222.92C291.46,235.58,293.07,251,290.56,257c-2.77,6.72-25.44-1.28-47.08,7-6.49,2.49-16.25,8.3-28.25,15.11,3.26-4.64,4.1-8.64,2.35-12.58l.74-.34c59.93-25.62,58.74-43,58.74-43Z"/><path class="cls-7" d="M277.33,222.92l-.27.29s1.19,17.42-58.74,43l-.74.34a14.28,14.28,0,0,0-2.19-3.43,7.9,7.9,0,0,0,1.58-7.65c39.54-20.12,33.12-45.8,33.12-45.8,6.66,1.47,14.89,4.13,21.91,9A57.39,57.39,0,0,1,277.33,222.92Z"/><path class="cls-7" d="M250.09,209.71s6.42,25.68-33.12,45.8a11.55,11.55,0,0,0-6.14-7.34,23.63,23.63,0,0,0,10.59-6.58A58.36,58.36,0,0,0,237.54,208,76.63,76.63,0,0,1,250.09,209.71Z"/><path class="cls-7" d="M217,255.51a7.9,7.9,0,0,1-1.58,7.65,14.28,14.28,0,0,1,2.19,3.43c1.75,3.94.91,7.94-2.35,12.58A415.11,415.11,0,0,1,176.48,299c5.41-5.65,8.42-9.58,2.58-11.8,7.22-6.68,5.74-10.28-.52-15.75,6.78-5.55,4.71-18.19-2.14-19.31,5.27-3.91,3.49-10.6,1.32-15.19l5.29,4.62a6.35,6.35,0,0,0,.83-1.1,29.55,29.55,0,0,0,3.21,3.06s11.59,8.14,23.78,4.62A11.55,11.55,0,0,1,217,255.51Z"/><path class="cls-7" d="M180.74,225.46c4.76,2.85,6.11,10.4,3.1,15-2.06-2.11-5-5.07-9-8.5,0,0,0,0,0,0-2.08-1.76-4.44-3.67-7.17-5.65A11.66,11.66,0,0,1,180.74,225.46Z"/><path class="cls-7" d="M183.84,240.49a6.35,6.35,0,0,1-.83,1.1L177.72,237a35,35,0,0,0-2.88-5C178.87,235.42,181.78,238.38,183.84,240.49Z"/><path class="cls-9" d="M179.06,287.22c5.84,2.22,2.83,6.15-2.58,11.8l0,0a206.91,206.91,0,0,1-29,10.33l-.5-1.89c9.7-5.56,12.69-10.57,10.86-18,14.78-2.8,8.66-15,6.38-18.67,9.44-6.56-.49-15.27-.49-15.27,5.46-3.27,3-14.31-4.24-18.95,3.36-5.84,2.85-10.08,1.29-13l5.84,3.62c0,.07,0,.08.07.05L177.72,237c2.17,4.59,3.95,11.28-1.32,15.19,6.85,1.12,8.92,13.76,2.14,19.31C184.8,276.94,186.28,280.54,179.06,287.22Z"/><path class="cls-9" d="M177.72,237l-11.05-9.67c-.08,0-.1,0-.07-.05l-5.84-3.62a12.34,12.34,0,0,0-4.72-4.71l.06-.11A129,129,0,0,1,167.27,226a9.66,9.66,0,0,1-.46,1,7.21,7.21,0,0,1,.83-.71c2.73,2,5.09,3.89,7.17,5.65,0,0,0,0,0,0A35,35,0,0,1,177.72,237Z"/><path class="cls-9" d="M167.27,226c.12.09.25.17.37.27a7.21,7.21,0,0,0-.83.71A9.66,9.66,0,0,0,167.27,226Z"/><path class="cls-7" d="M163.46,211.59c4.8,2.72,6,9.33,3.81,14.45a129,129,0,0,0-11.17-7.23c-2.06-1.19-4.26-2.4-6.59-3.6C152.69,210.72,158.59,208.82,163.46,211.59Z"/><path class="cls-9" d="M127.8,313.27c-18,2.22-36.27.47-53.59-8q-9.75-5-18-9.24C94,261.78,88.08,215.27,86,204.19l11-.35,10.22-.31,21.87,4.5,19.79,8.22,11.91,7.38c1.56,2.88,2.07,7.12-1.29,13,7.23,4.64,9.7,15.68,4.24,18.95,0,0,9.93,8.71.49,15.27,2.28,3.66,8.4,15.87-6.38,18.67,1.83,7.43-1.16,12.44-10.86,18l.5,1.89A141.53,141.53,0,0,1,127.8,313.27Zm.14-14.51c18.15-16.86-11.11-48-22.51-34.28,0,0-10.28,18.71-18.63,20.38S109.77,315.62,127.94,298.76Z"/><path class="cls-9" d="M156,218.92a12.34,12.34,0,0,1,4.72,4.71l-11.91-7.38a10.15,10.15,0,0,1,.66-1c2.33,1.2,4.53,2.41,6.59,3.6Z"/><path class="cls-7" d="M143.31,201.91a10.86,10.86,0,0,1,6,13.19q-5.6-2.88-12.25-5.65-3.66-1.47-7.33-2.63C132.44,202.09,138.24,199.67,143.31,201.91Z"/><path class="cls-9" d="M149.27,215.1a1.28,1.28,0,0,1,.24.11,10.15,10.15,0,0,0-.66,1A8.37,8.37,0,0,0,149.27,215.1Z"/><path class="cls-9" d="M149.27,215.1a8.37,8.37,0,0,1-.42,1.15L129.06,208a9.21,9.21,0,0,1,.63-1.21q3.67,1.16,7.33,2.63Q143.68,212.21,149.27,215.1Z"/><path class="cls-9" d="M129.2,206.66l.49.16a9.21,9.21,0,0,0-.63,1.21A10.6,10.6,0,0,0,129.2,206.66Z"/><path class="cls-7" d="M120.16,194.73c5.45,1,9.34,6.45,9,11.93a112.16,112.16,0,0,0-21.68-4.41A11.27,11.27,0,0,1,120.16,194.73Z"/><path class="cls-9" d="M129.2,206.66a10.6,10.6,0,0,1-.14,1.37l-21.87-4.5a8.89,8.89,0,0,1,.33-1.28A112.16,112.16,0,0,1,129.2,206.66Z"/><path class="cls-7" d="M105.43,264.48c11.4-13.71,40.66,17.42,22.51,34.28s-49.48-12.24-41.14-13.9S105.43,264.48,105.43,264.48Z"/><path class="cls-9" d="M107.52,202.25a8.89,8.89,0,0,0-.33,1.28,8.46,8.46,0,0,0-.16-1.34C107.21,202.21,107.36,202.22,107.52,202.25Z"/><path class="cls-9" d="M107.19,203.53,97,203.84a12.63,12.63,0,0,0-2-2.3c4,0,8,.24,12,.65A8.46,8.46,0,0,1,107.19,203.53Z"/><path class="cls-7" d="M95,201.54c-3.16,0-6.28.05-9.37.22a10.85,10.85,0,0,1,10.14-9c5.54-.29,10.34,4,11.27,9.41C103,201.78,99,201.56,95,201.54Z"/><path class="cls-9" d="M97,203.84l-11,.35c-.19-1-.35-1.75-.42-2.13a1.08,1.08,0,0,1,0-.3c3.09-.17,6.21-.26,9.37-.22A12.63,12.63,0,0,1,97,203.84Z"/><path class="cls-7" d="M86,204.19c2.08,11.08,8,57.59-29.78,91.81q-3.64-1.9-7-3.7l.28-.53C91,262.94,81.45,203.83,81.15,202.09c1.45-.12,2.9-.23,4.36-.33a1.14,1.14,0,0,0,.07.3,10.18,10.18,0,0,0-.11,2.14Z"/><path class="cls-7" d="M86,204.19h-.53a10.18,10.18,0,0,1,.11-2.14C85.65,202.44,85.81,203.17,86,204.19Z"/><path class="cls-9" d="M85.62,201.76a1.08,1.08,0,0,0,0,.3,1.14,1.14,0,0,1-.07-.3Z"/><path class="cls-7" d="M81.15,202.09c.3,1.74,9.84,60.85-31.64,89.68l-.28.53C20,276.69,7.13,267.57,7.13,260.22a34,34,0,0,0,8-5.48.21.21,0,0,1,.08-.06,22.52,22.52,0,0,0,9-13.09l-.33,0c.16-.52.3-1,.43-1.58h.11a24.37,24.37,0,0,0,.23-10.46s-1.42-6.42-4.6-10.75A183.48,183.48,0,0,1,81.15,202.09ZM69.57,232a15.29,15.29,0,1,0-15.29,15.29A15.29,15.29,0,0,0,69.57,232Z"/><path class="cls-3" d="M54.28,216.67A15.29,15.29,0,1,1,39,232,15.29,15.29,0,0,1,54.28,216.67Zm8.44,14.27a8.34,8.34,0,1,0-8.35,8.34A8.33,8.33,0,0,0,62.72,230.94Z"/><path class="cls-5" d="M54.37,222.61a8.34,8.34,0,1,1-8.32,8.33A8.33,8.33,0,0,1,54.37,222.61Z"/><path class="cls-2" d="M20.08,218.83c5,8,5.7,15.19,4.26,21.22C14.26,242,1.46,222,9.16,216.67,14,213.34,17.6,215.44,20.08,218.83Z"/><path class="cls-2" d="M23.91,241.63a30.21,30.21,0,0,1-8.74,13.11c-7.07,4.79-11,5.46-12.67,2.14C3,244.36,21.22,241.92,23.91,241.63Z"/><path class="cls-8" d="M107,202.19c-.93-5.38-5.73-9.7-11.27-9.41a10.85,10.85,0,0,0-10.14,9"/><path class="cls-8" d="M129.2,206.66c.3-5.48-3.59-10.93-9-11.93a11.27,11.27,0,0,0-12.64,7.52"/><path class="cls-8" d="M149.27,215.1a10.86,10.86,0,0,0-6-13.19c-5.07-2.24-10.87.18-13.62,4.91"/><path class="cls-8" d="M167.27,226c2.18-5.12,1-11.73-3.81-14.45s-10.77-.87-14,3.62"/><path class="cls-8" d="M183.84,240.49c3-4.63,1.66-12.18-3.1-15a11.66,11.66,0,0,0-13.1.85"/><path class="cls-8" d="M176.46,299a206.91,206.91,0,0,1-29,10.33,141.53,141.53,0,0,1-19.66,3.9c-18,2.22-36.27.47-53.59-8q-9.75-5-18-9.24-3.64-1.9-7-3.7C20,276.69,7.13,267.57,7.13,260.22a34,34,0,0,0,8-5.48,30.21,30.21,0,0,0,8.74-13.11c.16-.52.3-1,.43-1.58,1.44-6,.69-13.19-4.26-21.22a183.48,183.48,0,0,1,61.07-16.74c1.45-.12,2.9-.23,4.36-.33h.11c3.09-.17,6.21-.26,9.37-.22,4,0,8,.24,12,.65.18,0,.33,0,.49.06a112.16,112.16,0,0,1,21.68,4.41l.49.16q3.67,1.16,7.33,2.63,6.66,2.76,12.25,5.65a1.28,1.28,0,0,1,.24.11c2.33,1.2,4.53,2.41,6.59,3.6A129,129,0,0,1,167.27,226c.12.09.25.17.37.27,2.73,2,5.09,3.89,7.17,5.65"/><path class="cls-8" d="M174.84,232c4,3.43,6.94,6.39,9,8.5a29.55,29.55,0,0,0,3.21,3.06s11.59,8.14,23.78,4.62a23.63,23.63,0,0,0,10.59-6.58A58.36,58.36,0,0,0,237.54,208a76.63,76.63,0,0,1,12.55,1.74c6.66,1.47,14.89,4.13,21.91,9a57.39,57.39,0,0,1,5.33,4.18C291.46,235.58,293.07,251,290.56,257c-2.77,6.72-25.44-1.28-47.08,7-6.49,2.49-16.25,8.3-28.25,15.11A415.11,415.11,0,0,1,176.48,299"/><circle class="cls-8" cx="54.28" cy="231.96" r="15.29"/><path class="cls-8" d="M62.72,230.94a8.34,8.34,0,1,1-8.35-8.33A8.34,8.34,0,0,1,62.72,230.94Z"/><path class="cls-8" d="M85.5,201.75h0a1.14,1.14,0,0,0,.07.3c.07.38.23,1.11.42,2.13,2.08,11.08,8,57.59-29.78,91.81"/><path class="cls-8" d="M105.43,264.48S95.15,283.19,86.8,284.86s23,30.76,41.14,13.9S116.83,250.77,105.43,264.48Z"/><path class="cls-8" d="M24.34,240.05h.11a24.37,24.37,0,0,0,.23-10.46s-1.42-6.42-4.6-10.75c-2.48-3.39-6.07-5.49-10.92-2.16C1.46,222,14.26,242,24.34,240.05Z"/><path class="cls-8" d="M15.17,254.74a.21.21,0,0,1,.08-.06,22.52,22.52,0,0,0,9-13.09l-.33,0c-2.69.29-20.91,2.73-21.41,15.25C4.17,260.2,8.1,259.53,15.17,254.74Z"/><path class="cls-10" d="M81.15,202.06v0c.3,1.74,9.84,60.85-31.64,89.68"/><path class="cls-11" d="M95,201.51l0,0a12.63,12.63,0,0,1,2,2.3c2.21,3.23,4.62,9.61-2,17.74,5.84,6.68,5.84,19,0,21.18,0,0,7.51,11.63-2.79,16.36,1.4,4.44,4.58,18.89-9.93,18.34-.63,5.55,0,11.38-10.31,15"/><path class="cls-11" d="M133.65,217.18s11.28,5.79,4.4,19.58c7.14,5.24,9.85,17.27,4.63,20.67,0,0,9.87,9.71.86,16.56,2.33,4,8.6,17.45-5.68,20.08,2,8.09-.82,13.42-10.06,19.2,0,0,0,0,0,0"/><path class="cls-11" d="M155.44,218.61a3.94,3.94,0,0,1,.6.31,12.34,12.34,0,0,1,4.72,4.71c1.56,2.88,2.07,7.12-1.29,13,7.23,4.64,9.7,15.68,4.24,18.95,0,0,9.93,8.71.49,15.27,2.28,3.66,8.4,15.87-6.38,18.67,1.83,7.43-1.16,12.44-10.86,18"/><line class="cls-8" x1="176.48" y1="299.02" x2="176.46" y2="299.04"/><path class="cls-11" d="M174.84,232a35,35,0,0,1,2.88,5c2.17,4.59,3.95,11.28-1.32,15.19,6.85,1.12,8.92,13.76,2.14,19.31,6.26,5.47,7.74,9.07.52,15.75,5.84,2.22,2.83,6.15-2.58,11.8"/><path class="cls-8" d="M174.81,232s0,0,0,0"/><path class="cls-8" d="M209.88,247.88a5.74,5.74,0,0,1,1,.29,11.55,11.55,0,0,1,6.14,7.34,7.9,7.9,0,0,1-1.58,7.65,14.28,14.28,0,0,1,2.19,3.43c1.75,3.94.91,7.94-2.35,12.58-.34.49-.7,1-1.1,1.48"/><path class="cls-8" d="M250.09,209.71s6.42,25.68-33.12,45.8c-.16.1-.32.17-.48.25"/><path class="cls-8" d="M277.06,223.21s1.19,17.42-58.74,43"/><path class="cls-8" d="M20.16,218.82s61.71-31.62,116.93-9.38c34.08,14.08,46.31,31.5,50,34.09,0,0,19.36,13.62,34.37-1.94A58.31,58.31,0,0,0,237.6,208s19.86.63,34.46,10.77c19.05,13.23,21.35,31.6,18.57,38.32s-25.45-1.28-47.09,7C217.6,274,139.12,337.1,74.26,305.23c-47.06-23.89-67.08-35.85-67.08-45C16.08,256,33.58,240.71,20.16,218.82Z"/><path class="cls-12" d="M221.77,233.31s22.5,22.12,9.39,47.35c-10.73,20.63-51.74,7.62-43.09-9.7,7.59-15.2,0-30.7,0-30.7"/><path class="cls-12" d="M66.32,307.9a24.28,24.28,0,0,1-11.69-23.84c1.09-9.18,4.91-20.72,17.2-20.21,20.28.83,32.2,21,29.64,33.34-1.89,9.13-4.54,12.1-7.7,14.84-2.47,2.14-11,1.82-14.16,1.2A46,46,0,0,1,66.32,307.9Z"/><path class="cls-8" d="M184.86,238.71c17.09-.6,30.47-4,41-9.26"/></g></g></svg>