<svg t="1625659546795" class="icon" viewBox="0 0 1024 1024" version="1.1" xmlns="http://www.w3.org/2000/svg" p-id="1602" width="128" height="128"><path d="M512 509.44m-463.36 0a463.36 463.36 0 1 0 926.72 0 463.36 463.36 0 1 0-926.72 0Z" fill="#FFFFFF" p-id="1603"></path><path d="M512 980.48c-259.584 0-471.04-211.456-471.04-471.04s211.456-471.04 471.04-471.04 471.04 211.456 471.04 471.04-211.456 471.04-471.04 471.04z m0-926.72c-251.392 0-455.68 204.288-455.68 455.68s204.288 455.68 455.68 455.68 455.68-204.288 455.68-455.68-204.288-455.68-455.68-455.68z" fill="#2E66FF" p-id="1604"></path><path d="M512 860.672c-232.448 0-423.936-175.104-449.536-400.896-2.048 16.896-3.072 34.304-3.072 51.712 0 249.856 202.752 452.608 452.608 452.608 249.856 0 452.608-202.752 452.608-452.608 0-17.408-1.024-34.816-3.072-51.712-25.6 225.792-217.088 400.896-449.536 400.896z" fill="#C9E6FF" p-id="1605"></path><path d="M257.536 509.44m-115.712 0a115.712 115.712 0 1 0 231.424 0 115.712 115.712 0 1 0-231.424 0Z" fill="#FFF152" p-id="1606"></path><path d="M771.072 509.44m-115.712 0a115.712 115.712 0 1 0 231.424 0 115.712 115.712 0 1 0-231.424 0Z" fill="#FFF152" p-id="1607"></path><path d="M278.016 379.392a105.984 95.232 90 1 0 190.464 0 105.984 95.232 90 1 0-190.464 0Z" fill="#FFB5EC" p-id="1608"></path><path d="M373.248 493.056c-56.832 0-102.912-51.2-102.912-113.664s46.08-113.664 102.912-113.664S476.16 316.416 476.16 379.392s-46.592 113.664-102.912 113.664z m0-211.968c-48.128 0-87.552 44.032-87.552 98.304s39.424 98.304 87.552 98.304c48.128 0 87.552-44.032 87.552-98.304s-39.424-98.304-87.552-98.304z" fill="#2E66FF" p-id="1609"></path><path d="M561.664 378.88a105.984 95.232 90 1 0 190.464 0 105.984 95.232 90 1 0-190.464 0Z" fill="#FFB5EC" p-id="1610"></path><path d="M656.896 492.544c-56.832 0-102.912-51.2-102.912-113.664s46.08-113.664 102.912-113.664 102.912 51.2 102.912 113.664-46.08 113.664-102.912 113.664z m0-212.48c-48.128 0-87.552 44.032-87.552 98.304s39.424 98.304 87.552 98.304c48.128 0 87.552-44.032 87.552-98.304s-38.912-98.304-87.552-98.304zM445.952 345.6c0 34.816-25.088 62.464-56.32 62.464s-56.32-28.16-56.32-62.464c0-9.728 2.048-18.944 5.632-26.624 9.216-20.992 28.16-35.84 50.688-35.84s41.984 14.848 50.688 35.84c3.584 7.68 5.632 16.896 5.632 26.624z" fill="#2E66FF" p-id="1611"></path><path d="M729.6 345.6c0 34.816-25.088 62.464-56.32 62.464s-56.32-28.16-56.32-62.464c0-9.728 2.048-18.944 5.632-26.624 9.216-20.992 28.16-35.84 50.688-35.84s41.984 14.848 50.688 35.84c3.584 7.68 5.632 16.896 5.632 26.624zM508.416 604.672c-53.76 0-104.96-19.968-144.896-56.32l-7.68-7.168c-3.072-3.072-3.584-7.68-0.512-10.752 3.072-3.072 7.68-3.584 10.752-0.512l7.68 7.168c39.936 36.352 91.136 54.784 144.896 52.224s102.912-26.112 139.264-66.048c3.072-3.072 7.68-3.584 10.752-0.512 3.072 3.072 3.584 7.68 0.512 10.752-38.912 43.008-92.16 68.608-150.016 71.168h-10.752z" fill="#2E66FF" p-id="1612"></path><path d="M226.304 480.768m-10.752 0a10.752 10.752 0 1 0 21.504 0 10.752 10.752 0 1 0-21.504 0Z" fill="#2E66FF" p-id="1613"></path><path d="M268.288 480.768m-10.752 0a10.752 10.752 0 1 0 21.504 0 10.752 10.752 0 1 0-21.504 0Z" fill="#2E66FF" p-id="1614"></path><path d="M756.736 480.768m-10.752 0a10.752 10.752 0 1 0 21.504 0 10.752 10.752 0 1 0-21.504 0Z" fill="#2E66FF" p-id="1615"></path><path d="M798.72 480.768m-10.752 0a10.752 10.752 0 1 0 21.504 0 10.752 10.752 0 1 0-21.504 0Z" fill="#2E66FF" p-id="1616"></path></svg>