<?xml version="1.0" encoding="iso-8859-1"?>
<!-- Generator: Adobe Illustrator 23.0.2, SVG Export Plug-In . SVG Version: 6.00 Build 0)  -->
<svg version="1.1" id="&#x56FE;&#x5C42;_1" xmlns="http://www.w3.org/2000/svg" xmlns:xlink="http://www.w3.org/1999/xlink" x="0px"
	 y="0px" viewBox="0 0 1000 1000" style="enable-background:new 0 0 1000 1000;" xml:space="preserve">
<g>
	<g>
		<defs>
			<path id="XMLID_76_" d="M445.548,611.511c0,0-177.503,139.788-291.187,8.055s-4.027-420.474,133.077-383.508
				c71.27,19.216,194.326,5.389,296.069-12.321c144.248-25.108,280.503,78.157,292.957,224.043
				c5.028,58.89-10.824,117.583-67.575,163.732c-181.602,147.675-135.366,38.347-178.189-17.655S507.851,538.137,445.548,611.511z"
				/>
		</defs>
		<use xlink:href="#XMLID_76_"  style="overflow:visible;fill:#FFEBE5;"/>
		<clipPath id="XMLID_2_">
			<use xlink:href="#XMLID_76_"  style="overflow:visible;"/>
		</clipPath>
		<path style="clip-path:url(#XMLID_2_);fill:#FFFFFF;" d="M86.838,350.901c-16.252,0-25.983-1.289-26.213-1.321l0.274-1.98
			c0.552,0.075,56.036,7.405,124.786-13.516c63.419-19.299,151.438-67.286,210.611-186.302l1.791,0.891
			c-26.272,52.841-60.357,96.287-101.309,129.132c-32.77,26.283-69.98,45.87-110.597,58.219
			C145.702,348.33,109.777,350.901,86.838,350.901z"/>
		<path style="clip-path:url(#XMLID_2_);fill:#FFFFFF;" d="M13.962,555.9l-1.896-0.637c0.176-0.524,18.138-52.999,64.251-97.081
			c27.102-25.906,58.479-43.901,93.262-53.484c43.453-11.972,92.351-10.771,145.339,3.575
			c57.529,15.572,97.357,10.855,118.368-14.028c25.296-29.956,18.743-84.34,8.792-124.688
			c-10.819-43.868-27.888-81.061-28.06-81.432l1.816-0.838c0.172,0.372,17.32,37.738,28.186,81.791
			c10.063,40.799,16.633,95.856-9.207,126.457c-21.557,25.528-62.069,30.463-120.419,14.667
			c-119.117-32.245-194.431,9.049-236.638,49.371C31.973,503.312,14.137,555.379,13.962,555.9z"/>
		<path style="clip-path:url(#XMLID_2_);fill:#FFFFFF;" d="M81.453,770.188c-0.224-0.486-22.538-49.281-37.071-105.607
			c-8.544-33.115-12.77-62.328-12.56-86.826c0.264-30.768,7.566-54.184,21.706-69.595c26.167-28.517,75.76-29.92,147.404-4.163
			c153.584,55.214,230.463,76.171,283.654,77.322c55.981,1.195,86.846-19.782,127.402-61.566
			c15.291-15.753,32.782-22.385,51.99-19.728c30.134,4.178,64.44,30.861,101.969,79.31c28.938,37.357,52.224,78.07,63.528,99.015
			l-1.76,0.949c-21.154-39.189-95.498-167.793-164.012-177.292c-18.538-2.568-35.457,3.868-50.28,19.14
			c-39.834,41.04-70.428,62.221-124.272,62.224c-1.521,0-3.051-0.017-4.608-0.051c-53.43-1.156-130.479-22.145-284.287-77.438
			c-70.813-25.457-119.685-24.236-145.254,3.633c-31.328,34.145-22.013,102.902-8.683,154.569
			c14.488,56.154,36.728,104.786,36.951,105.271L81.453,770.188z"/>
		<path style="clip-path:url(#XMLID_2_);fill:#FFFFFF;" d="M560.01,359.699c-28.065,0-46.631-8.339-55.194-24.799
			c-11.623-22.34-5.031-58.815,19.594-108.413c18.267-36.792,40.204-67.479,40.424-67.784l1.625,1.166
			c-0.872,1.215-86.921,122.114-59.867,174.109c8.353,16.055,26.874,24.036,55.037,23.711
			c78.055-0.886,126.091-34.23,152.644-62.048c35.184-36.857,48.086-78.755,48.429-105.674l2,0.025
			c-0.348,27.3-13.398,69.752-48.982,107.03c-26.817,28.095-75.316,61.771-154.066,62.666
			C561.1,359.695,560.553,359.699,560.01,359.699z"/>
	</g>
	<path style="fill:#5A6C1C;" d="M248.393,672.206c-0.828,0-1.5-0.672-1.5-1.5v-446.16c0-71.95,58.536-130.486,130.486-130.486
		c71.951,0,130.487,58.536,130.487,130.486c0,0.828-0.672,1.5-1.5,1.5s-1.5-0.672-1.5-1.5c0-70.296-57.19-127.486-127.486-127.486
		c-70.297,0-127.487,57.19-127.487,127.486v446.16C249.893,671.534,249.221,672.206,248.393,672.206z"/>
	<polygon style="fill:#26205C;" points="932.154,745.276 87.185,745.276 174.348,652.478 844.991,652.478 	"/>
	<rect x="87.185" y="745.276" style="fill:#26205C;" width="844.969" height="13.91"/>
	<g>
		<defs>
			<polygon id="XMLID_84_" points="712.587,298.718 509.669,298.718 306.751,298.718 176.015,267.232 176.015,598.761 
				312.436,548.086 509.669,548.086 706.903,548.086 843.324,598.761 843.324,267.232 			"/>
		</defs>
		<use xlink:href="#XMLID_84_"  style="overflow:visible;fill:#FFFFFF;"/>
		<clipPath id="XMLID_3_">
			<use xlink:href="#XMLID_84_"  style="overflow:visible;"/>
		</clipPath>
		<rect x="124.857" y="203.623" style="clip-path:url(#XMLID_3_);fill:#EAEAFF;" width="186.442" height="431.423"/>
		<rect x="707.721" y="208.949" style="clip-path:url(#XMLID_3_);fill:#EAEAFF;" width="181.493" height="434.274"/>
		<path style="opacity:0.54;clip-path:url(#XMLID_3_);fill:#5A78EC;" d="M318.258,586.816c-0.026-0.767-2.193-77.082,32.342-112.917
			c11.869-12.317,26.782-18.59,44.325-18.646c26.403-0.083,58.771-8.762,86.585-23.216c26.835-13.944,44.206-30.679,45.333-43.671
			c1.018-11.735-11.027-20.179-34.835-24.418c-23.276-4.145-36.818-11.087-39.161-20.074c-1.451-5.568,1.418-11.488,8.298-17.122
			c17.2-14.083,59.248-24.932,88.653-10.598c26.309,12.822,38.763,18.201,47.61,15.896c8.945-2.332,14.349-12.65,25.113-33.209
			l0.308-0.588l1.771,0.928l-0.308,0.588c-12.498,23.868-18.204,34.763-30.934,34.765c-9.286,0.001-22.309-5.796-44.438-16.582
			c-28.269-13.776-70.118-3.073-86.51,10.349c-4.345,3.558-9.195,9.06-7.629,15.069c2.101,8.061,15.445,14.669,37.577,18.61
			c31.564,5.62,37.258,17.546,36.476,26.56c-2.603,30.006-77.689,68.537-133.904,68.714c-16.979,0.054-31.409,6.12-42.889,18.03
			c-33.948,35.223-31.812,110.706-31.786,111.464L318.258,586.816z"/>
		<path style="opacity:0.54;clip-path:url(#XMLID_3_);fill:#5A78EC;" d="M464.502,587.745c-3.248-0.911-79.579-22.639-81.769-50.34
			c-0.798-10.085,8.331-19.586,27.132-28.238c31.724-14.601,56.345-18.892,76.128-22.339c31.993-5.576,51.304-8.941,68.728-50.173
			c13.472-31.878,36.374-26.234,56.585-21.253c13.238,3.263,25.74,6.344,35.164-0.266c8.438-5.918,13.654-19.271,15.945-40.821
			c3.885-36.543,4.858-60.409,5.503-76.201c1.125-27.561,1.359-33.297,14.132-43.813l1.271,1.545
			c-12.082,9.946-12.284,14.894-13.404,42.349c-0.646,15.818-1.622,39.724-5.514,76.331c-2.355,22.159-7.846,35.979-16.785,42.248
			c-10.166,7.131-23.1,3.944-36.791,0.57c-20.384-5.022-41.458-10.216-54.265,20.09c-17.848,42.235-37.563,45.671-70.226,51.363
			c-19.67,3.428-44.148,7.694-75.636,22.186c-17.96,8.266-26.698,17.103-25.975,26.265c2.081,26.323,79.534,48.352,80.316,48.571
			L464.502,587.745z"/>
		<path style="opacity:0.54;clip-path:url(#XMLID_3_);fill:#5A78EC;" d="M665.106,573.587l-2-0.061
			c0.91-30.484-19.408-56.641-60.39-77.74c-10.155-5.229-19.076-5.673-26.512-1.323c-23.491,13.748-25.825,70.619-25.847,71.191
			l-1.998-0.072c0.086-2.384,2.396-58.541,26.833-72.844c8.065-4.72,17.634-4.293,28.439,1.271
			C645.357,515.491,666.041,542.265,665.106,573.587z"/>
		<path style="opacity:0.54;clip-path:url(#XMLID_3_);fill:#5A78EC;" d="M467.85,573.658l-1.608-1.189
			C586.169,410.202,626.992,427.772,656.801,440.6c4.439,1.911,8.633,3.715,12.774,4.77c32.385,8.242,38.88,119.962,39.14,124.714
			l-1.996,0.109c-0.063-1.149-6.664-115.002-37.638-122.886c-4.293-1.093-8.557-2.927-13.071-4.87
			C626.816,429.872,586.833,412.671,467.85,573.658z"/>
		<path style="opacity:0.54;clip-path:url(#XMLID_3_);fill:#5A78EC;" d="M335.093,393.666c-0.695,0-1.368-0.104-2.021-0.314
			c-8.483-2.725-12.189-23.801-11.016-62.645c0.864-28.606,4.133-56.816,4.166-57.099l1.986,0.232
			c-3.63,31.057-9.722,112.727,5.476,117.606c4.029,1.295,11.888-2.681,26.422-28.966c9.771-17.671,18.391-34.279,26.727-50.34
			c27.882-53.718,48.026-92.53,74.811-99.296c11.295-2.852,23.286,0.182,36.661,9.276l-1.125,1.654
			c-12.876-8.755-24.343-11.697-35.046-8.992c-25.913,6.546-45.885,45.023-73.525,98.278c-8.343,16.072-16.969,32.692-26.752,50.386
			C350.64,383.733,341.853,393.666,335.093,393.666z"/>
	</g>
	
		<polygon id="XMLID_105_" style="fill:none;stroke:#232323;stroke-width:2;stroke-linecap:round;stroke-linejoin:round;stroke-miterlimit:10;" points="
		722.132,311.388 519.215,311.388 316.297,311.388 185.56,279.902 185.56,611.431 321.981,560.756 519.215,560.756 716.448,560.756 
		852.869,611.431 852.869,279.902 	"/>
	<path style="fill:#5A78EC;" d="M620.349,514.827H478.37c-1.851,0-3.366-1.515-3.366-3.366V320.42c0-1.851,1.515-3.366,3.366-3.366
		h141.979c1.851,0,3.366,1.515,3.366,3.366v191.042C623.714,513.313,622.2,514.827,620.349,514.827z"/>
	<g>
		<defs>
			<path id="XMLID_85_" d="M613.077,509.156H485.642c-1.851,0-3.366-1.515-3.366-3.366v-179.7c0-1.851,1.515-3.366,3.366-3.366
				h127.435c1.851,0,3.366,1.515,3.366,3.366v179.7C616.443,507.642,614.928,509.156,613.077,509.156z"/>
		</defs>
		<use xlink:href="#XMLID_85_"  style="overflow:visible;fill:#FFFFFF;"/>
		<clipPath id="XMLID_4_">
			<use xlink:href="#XMLID_85_"  style="overflow:visible;"/>
		</clipPath>
		<circle style="clip-path:url(#XMLID_4_);fill:#FF6666;" cx="482.35" cy="507.973" r="62.85"/>
	</g>
	<g>
		<defs>
			<path id="XMLID_89_" d="M613.077,509.156h-67.841v-68.452h71.207v65.087C616.443,507.642,614.928,509.156,613.077,509.156z"/>
		</defs>
		<clipPath id="XMLID_5_">
			<use xlink:href="#XMLID_89_"  style="overflow:visible;"/>
		</clipPath>
		<circle style="clip-path:url(#XMLID_5_);fill:none;stroke:#FF6666;stroke-miterlimit:10;" cx="546.236" cy="438.967" r="70.19"/>
		<use xlink:href="#XMLID_89_"  style="overflow:visible;fill:none;stroke:#FF6666;stroke-miterlimit:10;"/>
	</g>
	<g>
		<circle style="fill:#FFB7B7;" cx="661.429" cy="410.679" r="15.407"/>
		<circle style="fill:#26205C;" cx="663.409" cy="393.489" r="5.918"/>
		<circle style="fill:#26205C;" cx="666.173" cy="379.779" r="11.515"/>
		<path style="fill:#26205C;" d="M661.429,400.449c0,0-1.73,9.268-15.407,9.463h-1.076c0,0-0.633-15.666,16.931-16.25
			c0,0,14.596,0.292,15.812,16.25h-0.854C676.836,409.912,663.289,410.009,661.429,400.449z"/>
		<path style="fill:#FFB7B7;" d="M600.84,444.146l-4.388-4.388c0,0-0.029-0.464-0.029-0.647v-4.624c0-0.817-0.669-1.486-1.486-1.486
			s-1.486,0.669-1.486,1.486v2.27l-4.323-4.323c-2.324-2.324-6.126-2.324-8.45,0l0,0c-2.324,2.324-2.324,6.126,0,8.45l11.42,11.42
			c1.058,1.058,2.79,1.058,3.848,0l4.894-4.894C601.738,446.512,601.738,445.043,600.84,444.146z"/>
		<g>
			<defs>
				<path id="SVGID_57_" d="M693.225,437.442c-0.967-0.393-2.026-0.608-3.14-0.591l-15.102,0.227l-1.127-2.496
					c-0.653-1.446-2.121-2.349-3.706-2.28l-13.231,0.576c-1.395,0.061-2.644,0.879-3.258,2.133l-1.552,3.172h-14.827
					c-1.292,0-2.489,0.354-3.516,0.956c-2.23,0.942-4.074,2.777-4.924,5.23L622,464.125l-19.342-20.926
					c-0.578-0.625-1.562-0.664-2.188-0.086l-10.71,9.899c-0.62,0.574-0.659,1.551-0.085,2.171l29.045,31.424
					c0.767,0.83,1.662,1.47,2.625,1.936c0.424,0.232,0.867,0.44,1.338,0.603c4.591,1.59,9.649-0.865,11.239-5.456l1.793-5.177
					l2.838,17.247l42.898-3.065c0,0,19.561,3.711,19.561-1.668v-44.012C701.012,442.319,697.657,438.369,693.225,437.442z"/>
			</defs>
			<use xlink:href="#SVGID_57_"  style="overflow:visible;fill:#A9D4CA;"/>
			<clipPath id="SVGID_1_">
				<use xlink:href="#SVGID_57_"  style="overflow:visible;"/>
			</clipPath>
			<polygon style="clip-path:url(#SVGID_1_);fill:#94BEB3;" points="635.187,458.244 635.861,488.03 634.544,473.293 			"/>
			<polygon style="clip-path:url(#SVGID_1_);fill:#94BEB3;" points="676.836,494.814 679.812,450.801 679.812,497.653 			"/>
		</g>
		<g>
			<defs>
				<path id="XMLID_80_" d="M654.657,670.706h-22.375c0,0,1.492,14.088-13.127,15.58c0,0-17.9,1.492-15.811,13.325h51.313V670.706z"
					/>
			</defs>
			<use xlink:href="#XMLID_80_"  style="overflow:visible;fill:#26205C;"/>
			<clipPath id="XMLID_7_">
				<use xlink:href="#XMLID_80_"  style="overflow:visible;"/>
			</clipPath>
			
				<rect x="589.323" y="695.544" transform="matrix(-1 -4.494151e-11 4.494151e-11 -1 1258.2991 1392.6625)" style="clip-path:url(#XMLID_7_);fill:#FFFFFF;stroke:#FFFFFF;stroke-miterlimit:10;" width="79.654" height="1.575"/>
			<use xlink:href="#XMLID_80_"  style="overflow:visible;fill:none;stroke:#FFFFFF;stroke-miterlimit:10;"/>
		</g>
		<g>
			<defs>
				<polygon id="SVGID_59_" points="638.553,495.76 623.714,663.292 661.429,663.292 665.811,516.426 676.836,663.292 
					712.844,663.292 690.916,491.028 				"/>
			</defs>
			<use xlink:href="#SVGID_59_"  style="overflow:visible;fill:#8EA594;"/>
			<clipPath id="SVGID_2_">
				<use xlink:href="#SVGID_59_"  style="overflow:visible;"/>
			</clipPath>
			<polygon style="clip-path:url(#SVGID_2_);fill:#7E9A84;" points="633.85,499.546 718.356,491.028 718.356,479.67 
				628.916,495.287 			"/>
		</g>
		<path style="fill:#FFFFFF;" d="M628.917,658.139c-0.025,0-0.052-0.001-0.078-0.003c-0.551-0.043-0.962-0.523-0.92-1.074
			l11.678-151.44c0.033-0.429,0.337-0.789,0.755-0.893c7.946-1.986,8.521-6.507,8.541-6.698c0.058-0.545,0.557-0.94,1.091-0.895
			c0.545,0.053,0.947,0.529,0.9,1.075c-0.021,0.242-0.599,5.81-9.348,8.271l-11.623,150.733
			C629.873,657.74,629.434,658.139,628.917,658.139z"/>
		<path style="fill:#FFFFFF;" d="M707.716,658.139c-0.492,0-0.921-0.362-0.989-0.863l-19.403-140.713
			c-0.076-0.547,0.307-1.052,0.854-1.127c0.557-0.083,1.052,0.307,1.127,0.854l19.403,140.713c0.076,0.547-0.307,1.052-0.854,1.127
			C707.806,658.136,707.76,658.139,707.716,658.139z"/>
		<polygon style="fill:#FFB000;" points="718.356,500.936 664.349,487.833 658.27,520.961 713.624,534.685 		"/>
		<path style="fill:#FFB7B7;" d="M694.466,506.961h-6.626c-1.865,0-3.392,1.526-3.392,3.392v7.116l-3.28,5.682
			c-0.39,0.676-0.157,1.549,0.52,1.939v0c0.676,0.39,1.549,0.157,1.939-0.52l0.821-1.422v4.006c0,3.731,3.052,6.783,6.783,6.783
			c3.731,0,6.783-3.052,6.783-6.783V510.51C698.015,508.558,696.418,506.961,694.466,506.961z"/>
		<path style="fill:#A9D4CA;" d="M699.494,516.426H681.42c-0.885,0-1.608-0.724-1.608-1.608v-67.172c0-5.83,4.77-10.6,10.6-10.6l0,0
			c5.83,0,10.6,4.77,10.6,10.6v67.262C701.012,515.742,700.329,516.426,699.494,516.426z"/>
		<polygon style="fill:#FFB7B7;" points="634.796,663.292 633.85,670.706 653.884,670.706 654.003,663.292 		"/>
		<g>
			<defs>
				<path id="XMLID_6_" d="M682.685,670.706h22.375c0,0-1.492,14.088,13.126,15.58c0,0,17.9,1.492,15.811,13.325h-51.313V670.706z"
					/>
			</defs>
			<use xlink:href="#XMLID_6_"  style="overflow:visible;fill:#26205C;"/>
			<clipPath id="XMLID_8_">
				<use xlink:href="#XMLID_6_"  style="overflow:visible;"/>
			</clipPath>
			
				<rect x="668.366" y="695.544" style="clip-path:url(#XMLID_8_);fill:#FFFFFF;stroke:#FFFFFF;stroke-miterlimit:10;" width="79.654" height="1.575"/>
			<use xlink:href="#XMLID_6_"  style="overflow:visible;fill:none;stroke:#FFFFFF;stroke-miterlimit:10;"/>
		</g>
		<polygon style="fill:#FFB7B7;" points="702.546,663.292 703.492,670.706 683.458,670.706 683.34,663.292 		"/>
		<path style="fill:#26205C;" d="M649.887,441.863c-0.544,0-0.989-0.435-1-0.98c-0.011-0.552,0.429-1.009,0.98-1.02l27.363-0.533
			c0.007,0,0.014,0,0.02,0c0.544,0,0.989,0.435,1,0.98c0.011,0.552-0.429,1.009-0.98,1.02l-27.363,0.533
			C649.9,441.863,649.893,441.863,649.887,441.863z"/>
	</g>
	<g id="&#x76C6;&#x683D;_1_">
		<path style="fill:#5A6C1C;" d="M819.937,653.736c-0.262-0.621-25.796-62.708,3.988-108.168l0.836,0.549
			c-29.495,45.019-4.162,106.615-3.902,107.232L819.937,653.736z"/>
		<path style="fill:#5A6C1C;" d="M826.316,653.543c-1.081-5.22-1.945-10.48-2.736-15.751c-0.783-5.272-1.425-10.565-1.996-15.867
			c-0.482-5.31-0.956-10.624-1.15-15.956c-0.188-5.33-0.234-10.673,0.161-15.991l0.05,3.995c0.004,1.33,0.094,2.66,0.136,3.989
			c0.03,1.329,0.096,2.657,0.177,3.985c0.083,1.328,0.127,2.656,0.243,3.981c0.352,5.306,0.817,10.606,1.375,15.896
			c0.486,5.298,1.142,10.579,1.761,15.865c0.304,2.644,0.635,5.285,0.978,7.925L826.316,653.543z"/>
		<path style="fill:#5A6C1C;" d="M820.303,573.564c-0.035,0-0.07-0.004-0.106-0.012c-0.27-0.058-0.441-0.323-0.384-0.594
			c0.029-0.134,2.743-13.618-8.975-30.183c-0.159-0.226-0.106-0.538,0.119-0.697c0.225-0.16,0.537-0.107,0.697,0.119
			c11.988,16.947,9.166,30.834,9.136,30.972C820.741,573.403,820.533,573.564,820.303,573.564z"/>
		<path style="fill:#5A6C1C;" d="M837.598,656.723c-0.006-0.106-0.595-10.698-5.895-15.432c-5.847-5.22-13.664-41.134-10.71-54.919
			l0.979,0.209c-2.848,13.286,4.889,49.046,10.397,53.964c5.614,5.014,6.204,15.677,6.227,16.129L837.598,656.723z"/>
		<path style="fill:#AABB41;" d="M778.581,615.276c0,0,9.863-2.17,18.344-21.106c0,0,5.326-3.156,10.652,10.553
			c0,0,2.219-0.493,1.479-5.03s18.049-3.501,21.747,2.564c0,0-21.007,15.238-38.02,17.309
			C792.783,619.566,775.918,618.974,778.581,615.276z"/>
		<path style="fill:#6F8037;" d="M841.899,623.166c0,0,2.071-8.679-11.095-9.074c-13.167-0.395-17.605,3.551-35.164,5.012
			c0,0,19.709-7.39,25.071-15.556c0.878-1.337,2.062-2.46,3.473-3.213c2.546-1.359,6.556-2.052,11.403,2.119
			C835.587,602.454,843.871,606.794,841.899,623.166z"/>
		<path style="fill:#5A6C1C;" d="M834.009,653.543c0.794-1.188,1.498-2.424,2.128-3.695c0.637-1.266,1.245-2.547,1.743-3.872
			c1.027-2.634,1.884-5.33,2.509-8.085c0.16-0.688,0.282-1.384,0.425-2.075c0.154-0.69,0.262-1.388,0.353-2.089l0.309-2.099
			c0.057-0.705,0.127-1.409,0.203-2.114c0.28-2.823,0.267-5.663,0.28-8.525c0.179,1.415,0.35,2.839,0.454,4.269
			c0.013,1.431,0.131,2.869,0.033,4.303c-0.033,2.879-0.505,5.733-1.083,8.552c-0.661,2.804-1.564,5.556-2.78,8.166
			C837.368,648.881,835.922,651.404,834.009,653.543z"/>
		<path style="fill:#6F8037;" d="M853.142,573.557c0,0,7.249,5.233,16.569,2.653s8.827,5.582,5.055,6.47s-4.997,0.582-9.268,0.271
			C857.957,582.402,853.142,573.557,853.142,573.557z"/>
		<path style="fill:#AABB41;" d="M870.205,583.296c0,0-19.873-1.603-27.122-1.011c-7.249,0.592-21.303,0.777-22.524,8.765
			c0,0-9.875-4.105,1.073-21.784c0,0,9.172-14.276,22.265-4.438l-0.148,8.235l3.994-6.09c0,0,10.208,12.895,20.637,15.854
			L870.205,583.296z"/>
		<path style="fill:#6F8037;" d="M880.289,528.953c0,0-0.881-9.276-10.87-11.073c-9.989-1.797-11.543,7.005-11.543,7.005
			S867.492,519.189,880.289,528.953z"/>
		<path style="fill:#AABB41;" d="M823.406,547.31c0,0-3.55-43.655,28.109-29.748c0,0,6.682-0.444,18.69,0.37
			c0,0-12.55,1.479-11.071,7.915C860.613,532.282,836.795,548.137,823.406,547.31z"/>
		<path style="fill:#5A6C1C;" d="M824.344,546.534c1.027-3.293,2.462-6.453,4.103-9.496c1.648-3.042,3.577-5.943,5.798-8.615
			c2.231-2.659,4.772-5.094,7.679-7.023c1.463-0.946,2.995-1.781,4.594-2.462c1.624-0.621,3.292-1.114,4.997-1.375
			c-3.325,0.917-6.409,2.46-9.152,4.468c-2.729,2.026-5.179,4.41-7.351,7.032c-2.197,2.604-4.114,5.439-5.901,8.355
			c-0.891,1.461-1.724,2.959-2.51,4.483C825.79,543.413,825.048,544.961,824.344,546.534z"/>
		<path style="fill:#AABB41;" d="M762.867,575.613c0,0-10.767-18.033-4.405-33.863c0,0,3.894,5.737,7.249,5.591
			c0,0-2.219-4.408-1.923-7.367c0,0,8.58-2.219,16.717-1.331L762.867,575.613z"/>
		<path style="fill:#6F8037;" d="M763.294,577.995c0,0-7.2-27.714,22.585-48.031l2.762,9.567l3.057-8.447
			c0,0,13.352-2.441,19.824,11.997C811.522,543.082,781.737,535.685,763.294,577.995z"/>
		<polygon style="fill:#3F2700;stroke:#FFFFFF;stroke-miterlimit:10;" points="805.21,651.373 853.142,651.373 838.348,695.755 
			820.004,695.755 		"/>
	</g>
	<polygon style="fill:#FFFFFF;" points="198.373,294.57 198.373,502.233 286.288,478.82 286.288,313.77 	"/>
	<polygon style="fill:#5A78EC;" points="208.225,311.496 208.225,335.749 277.951,347.875 277.951,324.696 	"/>
	<polygon style="opacity:0.28;fill:#5A78EC;" points="212.015,358.46 212.015,382.713 281.741,392.818 281.741,369.323 	"/>
	<polygon style="fill:#5A78EC;" points="224.52,352.423 224.52,376.675 294.246,386.78 294.246,363.286 	"/>
	<polygon style="fill:#FF6666;" points="208.225,395.37 208.225,429.854 240.815,427.581 240.815,398.402 	"/>
	<polygon style="fill:#FDD740;" points="208.225,438.949 208.225,475.707 240.815,468.507 240.815,436.802 	"/>
	<polygon style="fill:#5A78EC;" points="215.425,520.423 215.425,546.191 248.394,535.581 248.394,510.57 	"/>
	<polygon style="fill:#FF6666;" points="269.804,506.402 269.804,532.17 302.773,521.559 302.773,496.549 	"/>
	<circle style="fill:none;stroke:#FFFFFF;stroke-miterlimit:10;" cx="781.494" cy="395.609" r="5.532"/>
	<g id="&#x5C0F;&#x706B;&#x7BAD;_2_" style="opacity:0.33;">
		<path style="fill:#6262B6;" d="M393.508,360.546c0,0-20.269-8.33-39.363,10.301l22.764,19.305L393.508,360.546z"/>
		<path style="fill:#6262B6;" d="M424.852,388.247c0,0,11.357,18.741-4.105,40.481l-22.586-19.514L424.852,388.247z"/>
		<g>
			<defs>
				<path id="SVGID_61_" d="M419.982,400.407c-17.012,17.627-25.866,16.479-25.866,16.479l-25.103-23.374
					c0,0,0.594-11.461,15.716-27.129c16.181-16.766,37.19-22.74,46.925-13.345C441.389,362.433,436.164,383.641,419.982,400.407z"/>
			</defs>
			<use xlink:href="#SVGID_61_"  style="overflow:visible;fill:#6262B6;"/>
			<clipPath id="SVGID_3_">
				<use xlink:href="#SVGID_61_"  style="overflow:visible;"/>
			</clipPath>
			<polygon style="clip-path:url(#SVGID_3_);fill:#6262B6;" points="377.293,340.255 445.386,405.505 452.187,341.381 
				404.231,326.749 			"/>
		</g>
		<circle style="fill:#6262B6;" cx="400.653" cy="386.744" r="9.867"/>
		<path style="fill:#6262B6;" d="M380.459,441.413c14.957-16.437-2.532-29.542-2.532-29.542s-13.924-16.845-29.629-1.121
			c0,0-3.583,3.009-6.366,8.923c0,0-1.052,1.852,15.271-3.288c0,0-14.297,13.498-8.513,26.151c12.915,5.174,25.715-9.75,25.715-9.75
			c-4.356,16.55-2.556,15.41-2.556,15.41C377.624,445.135,380.459,441.413,380.459,441.413z"/>
		<circle style="fill:#6262B6;" cx="368.331" cy="421.789" r="5.444"/>
	</g>
	<g id="&#x5C0F;&#x706B;&#x7BAD;_1_">
		<path style="fill:#2B4BB1;" d="M390.275,353.44c0,0-20.269-8.33-39.363,10.301l22.764,19.305L390.275,353.44z"/>
		<path style="fill:#2B4BB1;" d="M421.618,381.14c0,0,11.357,18.741-4.105,40.481l-22.586-19.514L421.618,381.14z"/>
		<g>
			<defs>
				<path id="SVGID_63_" d="M416.749,393.3c-17.012,17.627-25.866,16.479-25.866,16.479l-25.103-23.374
					c0,0,0.594-11.461,15.716-27.129c16.181-16.766,37.19-22.74,46.925-13.345C438.156,355.327,432.93,376.535,416.749,393.3z"/>
			</defs>
			<use xlink:href="#SVGID_63_"  style="overflow:visible;fill:#5A78EB;"/>
			<clipPath id="SVGID_4_">
				<use xlink:href="#SVGID_63_"  style="overflow:visible;"/>
			</clipPath>
			<polygon style="clip-path:url(#SVGID_4_);fill:#FF6666;" points="374.06,333.148 442.152,398.399 448.954,334.275 
				400.998,319.642 			"/>
		</g>
		<circle style="fill:#FFFFFF;" cx="397.42" cy="379.638" r="9.867"/>
		<path style="fill:#FDD740;" d="M377.226,434.307c14.957-16.437-2.532-29.542-2.532-29.542s-13.924-16.845-29.629-1.121
			c0,0-3.583,3.009-6.366,8.923c0,0-1.052,1.852,15.271-3.288c0,0-14.297,13.498-8.513,26.151c12.915,5.174,25.715-9.75,25.715-9.75
			c-4.356,16.55-2.556,15.41-2.556,15.41C374.391,438.029,377.226,434.307,377.226,434.307z"/>
		<circle style="fill:#FB6E42;" cx="365.098" cy="414.682" r="5.444"/>
	</g>
	<rect x="492.183" y="337.77" style="fill:#5A78EC;" width="36.379" height="32.842"/>
	<polygon style="fill:#5A78EC;" points="492.183,391.295 503.299,414.682 541.699,414.682 528.562,391.295 	"/>
	<path style="fill:#5A78EC;" d="M535.13,337.77c0,0-2.211,13.895,3.347,19.705c5.558,5.811,5.747,14.601,5.747,18.164h32.337
		c0,0,0.947-13.048-9.095-21.448c-7-5.855-4.168-16.421-4.168-16.421H535.13z"/>
	<g id="&#x6570;&#x636E;&#x997C;&#x56FE;_1_">
		<path style="fill:#1C1B1B;" d="M793.83,275.725c3,3,14,20,1,46c0,0-18.339,35.762-56.775,20.356
			c-5.694-2.283-11.225-7.356-13.225-9.356s-2.4-3.8-3-5l37,4l28-23C786.83,308.725,791.594,273.489,793.83,275.725z"/>
		<path style="fill:#1C1B1B;" d="M717.83,322.725l18-15c0,0-5.5-9.5,1.5-21.5l-9.5-8.5l-14,36
			C713.83,313.725,716.83,322.725,717.83,322.725z"/>
		<path style="fill:#1C1B1B;" d="M727.83,264.725l-2,4l15,13c0,0,14-14,32,1l17-13l-6-5H727.83z"/>
		<path style="fill:#FF6666;" d="M733.186,306.954c-1.771-5.021-1.988-10.756-0.246-16.387c0.637-2.06,1.499-3.984,2.545-5.75
			L720.2,271.885c-2.575,3.852-4.661,8.158-6.112,12.85c-3.838,12.407-2.534,25.087,2.655,35.478L733.186,306.954z"/>
		<path style="fill:#FFD840;" d="M768.822,253.306c-15.581-4.82-32.018,0.307-43.23,11.888l15.557,12.964
			c5.931-4.945,13.854-6.934,21.407-4.597c3.54,1.095,6.608,3.023,9.089,5.524l16.415-12.898
			C783.114,260.26,776.577,255.705,768.822,253.306z"/>
		<path style="fill:#5A78EC;" d="M776.169,285.55c2.633,5.541,3.25,12.227,1.226,18.771c-4.081,13.191-17.341,20.805-29.617,17.007
			c-4.175-1.292-7.697-3.739-10.369-6.923l-16.639,12.386c5.092,6.858,12.172,12.141,20.741,14.792
			c22.687,7.019,47.193-7.053,54.734-31.43c4.026-13.013,2.4-26.331-3.439-36.989L776.169,285.55z"/>
		<path style="fill:#FFFFFF;" d="M734.401,333.403c-0.094,0-0.188-0.025-0.271-0.08c-0.984-0.637-1.967-1.332-2.92-2.067
			c-1.614-1.244-3.207-2.65-4.733-4.178c-0.195-0.195-0.195-0.512,0-0.707s0.512-0.195,0.707,0c1.496,1.497,3.057,2.874,4.638,4.094
			c0.931,0.718,1.891,1.397,2.852,2.019c0.231,0.149,0.298,0.459,0.148,0.691C734.725,333.322,734.564,333.403,734.401,333.403z"/>
		<path style="fill:#FFFFFF;" d="M753.563,339.161c-3.951,0-8.074-0.631-12.022-2.098c-0.259-0.097-0.391-0.384-0.295-0.643
			c0.097-0.259,0.388-0.392,0.643-0.295c10.408,3.868,22.046,1.762,28.164-2.317c0.228-0.153,0.539-0.092,0.693,0.139
			c0.153,0.229,0.091,0.54-0.139,0.693C766.609,337.307,760.341,339.161,753.563,339.161z"/>
		<path style="fill:#FFFFFF;" d="M779.375,328.936c-0.143,0-0.284-0.061-0.384-0.179c-0.177-0.212-0.148-0.527,0.063-0.705
			c22.422-18.764,12.908-44.391,12.81-44.647c-0.099-0.258,0.029-0.547,0.287-0.646c0.261-0.098,0.548,0.03,0.646,0.287
			c0.102,0.264,9.862,26.556-13.101,45.774C779.602,328.898,779.488,328.936,779.375,328.936z"/>
	</g>
	<path style="fill:#6363C0;" d="M231.909,561.086c-0.207,0-0.412-0.064-0.585-0.188c-0.261-0.188-0.415-0.49-0.415-0.812v-19.2
		c0-0.553,0.447-1,1-1s1,0.447,1,1v17.813l55.664-18.534v-14.357c0-0.553,0.447-1,1-1s1,0.447,1,1v15.078
		c0,0.431-0.275,0.813-0.684,0.949l-57.665,19.2C232.122,561.069,232.015,561.086,231.909,561.086z"/>
	<path style="fill:#6363C0;" d="M289.573,541.886c-0.418,0-0.807-0.263-0.947-0.681c-0.177-0.523,0.104-1.091,0.628-1.267
		l21.915-7.39c0.089-0.03,0.182-0.048,0.274-0.052l28.793-1.283v-28.98c0-0.553,0.447-1,1-1h133.768c0.553,0,1,0.447,1,1
		s-0.447,1-1,1H342.236v28.936c0,0.535-0.421,0.976-0.955,0.999l-29.607,1.32l-21.781,7.344
		C289.787,541.869,289.678,541.886,289.573,541.886z"/>
	<path style="fill:#5A78EC;" d="M805.636,474.69l-59.347-10c-6.585,0-11.972-5.387-11.972-11.972v-53.264
		c0-6.585,5.387-11.972,11.972-11.972l59.347-10c6.585,0,11.972,5.387,11.972,11.972v73.264
		C817.608,469.303,812.22,474.69,805.636,474.69z"/>
	<path style="fill:none;stroke:#232323;stroke-miterlimit:10;" d="M810.632,481.414l-58.514-9.86
		c-6.492,0-11.804-5.312-11.804-11.804v-52.516c0-6.492,5.312-11.804,11.804-11.804l58.514-9.86c6.492,0,11.804,5.312,11.804,11.804
		v72.235C822.436,476.102,817.124,481.414,810.632,481.414z"/>
	<circle style="fill:#FFFFFF;" cx="773.322" cy="424.146" r="19.705"/>
	<circle style="fill:none;stroke:#FFFFFF;stroke-miterlimit:10;" cx="798.467" cy="396.935" r="5.772"/>
	<path style="fill:#232323;" d="M601.798,390.224h-46.536c-0.276,0-0.5-0.224-0.5-0.5s0.224-0.5,0.5-0.5h46.536
		c0.276,0,0.5,0.224,0.5,0.5S602.074,390.224,601.798,390.224z"/>
	<path style="fill:#232323;" d="M576.634,396.052h-21.372c-0.276,0-0.5-0.224-0.5-0.5s0.224-0.5,0.5-0.5h21.372
		c0.276,0,0.5,0.224,0.5,0.5S576.91,396.052,576.634,396.052z"/>
	<path style="fill:#232323;" d="M592.891,396.052h-10.004c-0.276,0-0.5-0.224-0.5-0.5s0.224-0.5,0.5-0.5h10.004
		c0.276,0,0.5,0.224,0.5,0.5S593.168,396.052,592.891,396.052z"/>
	<path style="fill:#232323;" d="M564.914,401.881h-9.652c-0.276,0-0.5-0.224-0.5-0.5s0.224-0.5,0.5-0.5h9.652
		c0.276,0,0.5,0.224,0.5,0.5S565.19,401.881,564.914,401.881z"/>
	<path style="fill:#232323;" d="M587.665,401.881h-16.891c-0.276,0-0.5-0.224-0.5-0.5s0.224-0.5,0.5-0.5h16.891
		c0.276,0,0.5,0.224,0.5,0.5S587.941,401.881,587.665,401.881z"/>
	<path style="fill:#232323;" d="M610.589,401.881h-18.615c-0.276,0-0.5-0.224-0.5-0.5s0.224-0.5,0.5-0.5h18.615
		c0.276,0,0.5,0.224,0.5,0.5S610.865,401.881,610.589,401.881z"/>
	<path style="fill:#232323;" d="M595.594,407.71h-40.332c-0.276,0-0.5-0.224-0.5-0.5s0.224-0.5,0.5-0.5h40.332
		c0.276,0,0.5,0.224,0.5,0.5S595.87,407.71,595.594,407.71z"/>
	<path style="fill:#232323;" d="M606.797,407.71h-6.723c-0.276,0-0.5-0.224-0.5-0.5s0.224-0.5,0.5-0.5h6.723
		c0.276,0,0.5,0.224,0.5,0.5S607.073,407.71,606.797,407.71z"/>
	<path style="fill:#232323;" d="M576.634,413.538h-21.372c-0.276,0-0.5-0.224-0.5-0.5s0.224-0.5,0.5-0.5h21.372
		c0.276,0,0.5,0.224,0.5,0.5S576.91,413.538,576.634,413.538z"/>
	<path style="fill:#232323;" d="M603.435,413.538h-22.837c-0.276,0-0.5-0.224-0.5-0.5s0.224-0.5,0.5-0.5h22.837
		c0.276,0,0.5,0.224,0.5,0.5S603.712,413.538,603.435,413.538z"/>
	<path style="fill:none;stroke:#232323;stroke-miterlimit:10;" d="M525.92,374.402h-23.952c-2.584,0-4.698-2.114-4.698-4.698
		v-23.952c0-2.584,2.114-4.698,4.698-4.698h23.952c2.584,0,4.698,2.114,4.698,4.698v23.952
		C530.618,372.288,528.504,374.402,525.92,374.402z"/>
	<path style="fill:none;stroke:#232323;stroke-miterlimit:10;" d="M543.956,416.901h-49.483c-1.954,0-3.553-1.599-3.553-3.553v0
		c0-1.954,1.599-3.553,3.553-3.553h49.483c1.954,0,3.553,1.599,3.553,3.553v0C547.509,415.302,545.91,416.901,543.956,416.901z"/>
	<path style="fill:none;stroke:#5A6C1C;stroke-width:3;stroke-miterlimit:10;" d="M377.38,509.156"/>
	<polygon style="fill:#AABB41;" points="440.141,275.172 506.347,222.873 590.583,272.898 	"/>
	<path style="fill:#AABB41;" d="M220.351,151.256c0,0-21.221,66.695,26.526,97.767C246.878,249.023,258.997,173.484,220.351,151.256
		z"/>
	<path style="fill:#AABB41;" d="M279.764,140.466c0,0,36.082-40.368,72.84-9.674C352.604,130.793,335.387,160.751,279.764,140.466z"
		/>
	<path style="fill:#AABB41;" d="M395.425,95.559c0,0,19.705-33.356,49.642-21.23C445.067,74.33,445.067,100.873,395.425,95.559z"/>
	<path style="fill:#AABB41;" d="M447.454,116.399c0,0-20.576,29.931,15.424,63.657C462.878,180.056,482.429,146.721,447.454,116.399
		z"/>
	<path style="fill:none;stroke:#5A78EC;stroke-width:2;stroke-miterlimit:10;" d="M864.453,358.433l-6.531,6.805
		c-1.62,1.688-4.018,2.384-6.291,1.825l-9.158-2.254c-2.272-0.559-4.074-2.288-4.725-4.536l-2.627-9.058
		c-0.652-2.247-0.055-4.672,1.565-6.36l6.531-6.805c1.62-1.688,4.018-2.384,6.291-1.825l9.158,2.254
		c2.272,0.559,4.074,2.288,4.725,4.536l2.627,9.058C866.67,354.321,866.073,356.745,864.453,358.433z"/>
	<path style="fill:none;stroke:#5A78EC;stroke-width:2;stroke-miterlimit:10;" d="M457.769,308.375l-7.734-4.465
		c-3.001-1.732-4.029-5.569-2.296-8.57l3.288-5.695c1.732-3.001,5.569-4.029,8.57-2.296l7.734,4.465
		c3.001,1.732,4.029,5.569,2.296,8.57l-3.288,5.695C464.606,309.079,460.769,310.107,457.769,308.375z"/>
	<circle style="fill:#5A78EC;" cx="323.299" cy="282.146" r="8.422"/>
	<path style="fill:none;stroke:#5A78EC;stroke-width:2;stroke-miterlimit:10;" d="M178.92,463.371l-24.06-2.725
		c-2.582-0.293-3.88-3.271-2.335-5.361l14.39-19.474c1.545-2.09,4.773-1.725,5.81,0.658l9.67,22.199
		C183.433,461.05,181.502,463.663,178.92,463.371z"/>
	<circle style="fill:none;stroke:#5A78EC;stroke-width:2;stroke-miterlimit:10;" cx="431.93" cy="466.569" r="8.211"/>
</g>
</svg>
